# xmcd
#
# Track frame offsets:
#	150
#	6977
#	21460
#	34945
#	50520
#	66377
#	77567
#	89145
#	102492
#	118480
#	129892
#	141452
#	153895
#	164920
#
# Disc length: 2376 seconds
#
# Revision: 1
# Processed by: cddbd v1.5.1PL0 Copyright (c) Steve Scherf et al.
# Submitted via: audiograbber 1.83.01
#
DISCID=d109460e
DTITLE=Tom Astor - Weihnachten mit Tom Astor 1/2
DYEAR=1999
DGENRE=Country
TTITLE0=Wir wünschen euch frohe Weihnacht
TTITLE1=Du wunderschöne Weihnachtszeit
TTITLE2=Weihnachten woll´m wir feiern
TTITLE3=Warten auf den Weihnachtsmann
TTITLE4=Aba Heidschi Bumbeidschi bum bum
TTITLE5=Winterzeit - Glatteiszeit
TTITLE6=Mein Daddy fährt für´s Christkind die Geschenke
TTITLE7=Kleiner Trommler
TTITLE8=Frieden bleibt ein Weihnachtstraum
TTITLE9=Alle Jahre wieder
TTITLE10=zu bethlehem geboren
TTITLE11=Es ist ein Ros entpsprungen
TTITLE12=Kinderträume
TTITLE13=Weihnachtsträume
EXTD=
EXTT0=
EXTT1=
EXTT2=
EXTT3=
EXTT4=
EXTT5=
EXTT6=
EXTT7=
EXTT8=
EXTT9=
EXTT10=
EXTT11=
EXTT12=
EXTT13=
PLAYORDER=
